REM DIRINDEX 1\2\5,1\2\6,1\2\7,1\2\8,1\3\9,1\3\10,1\3\11,1\4\12,1\4\13,1\4\14,1\4\15,1\4\16
REM DIRNAME cjc034,folder01,folder02,folder03,folder04,folder05,folder06,folder07,folder08,folder09,folder10,folder11,folder12,folder13,folder14,folder15
TITLE ""
FILE "1200_sec03_0783_0791.mp3" MP3
  TRACK 01 AUDIO
    TITLE "0:"
    INDEX 01 00:00:00
  TRACK 02 AUDIO
    TITLE "12:cjc034_06797"
    INDEX 01 00:00:19
  TRACK 03 AUDIO
    TITLE "0:"
    INDEX 01 00:01:52
  TRACK 04 AUDIO
    TITLE "13:cjc034_06798"
    INDEX 01 00:02:10
  TRACK 05 AUDIO
    TITLE "0:"
    INDEX 01 00:03:39
  TRACK 06 AUDIO
    TITLE "14:cjc034_06799"
    INDEX 01 00:03:72
  TRACK 07 AUDIO
    TITLE "0:"
    INDEX 01 00:05:30
  TRACK 08 AUDIO
    TITLE "15:cjc034_06800"
    INDEX 01 00:05:73
  TRACK 09 AUDIO
    TITLE "0:"
    INDEX 01 00:10:06
  TRACK 10 AUDIO
    TITLE "12:cjc034_06801"
    INDEX 01 00:11:40
  TRACK 11 AUDIO
    TITLE "0:"
    INDEX 01 00:12:73
  TRACK 12 AUDIO
    TITLE "13:cjc034_06802"
    INDEX 01 00:13:30
  TRACK 13 AUDIO
    TITLE "0:"
    INDEX 01 00:16:18
  TRACK 14 AUDIO
    TITLE "14:cjc034_06803"
    INDEX 01 00:16:53
  TRACK 15 AUDIO
    TITLE "0:"
    INDEX 01 00:18:09
  TRACK 16 AUDIO
    TITLE "15:cjc034_06804"
    INDEX 01 00:18:44
  TRACK 17 AUDIO
    TITLE "0:"
    INDEX 01 00:22:46
  TRACK 18 AUDIO
    TITLE "12:cjc034_06805"
    INDEX 01 00:24:06
  TRACK 19 AUDIO
    TITLE "0:"
    INDEX 01 00:25:25
  TRACK 20 AUDIO
    TITLE "13:cjc034_06806"
    INDEX 01 00:25:58
  TRACK 21 AUDIO
    TITLE "0:"
    INDEX 01 00:26:67
  TRACK 22 AUDIO
    TITLE "14:cjc034_06807"
    INDEX 01 00:27:26
  TRACK 23 AUDIO
    TITLE "0:"
    INDEX 01 00:28:45
  TRACK 24 AUDIO
    TITLE "15:cjc034_06808"
    INDEX 01 00:29:07
  TRACK 25 AUDIO
    TITLE "0:"
    INDEX 01 00:33:30
  TRACK 26 AUDIO
    TITLE "12:cjc034_06809"
    INDEX 01 00:34:63
  TRACK 27 AUDIO
    TITLE "0:"
    INDEX 01 00:36:21
  TRACK 28 AUDIO
    TITLE "13:cjc034_06810"
    INDEX 01 00:36:56
  TRACK 29 AUDIO
    TITLE "0:"
    INDEX 01 00:38:10
  TRACK 30 AUDIO
    TITLE "14:cjc034_06811"
    INDEX 01 00:38:41
  TRACK 31 AUDIO
    TITLE "0:"
    INDEX 01 00:39:72
  TRACK 32 AUDIO
    TITLE "15:cjc034_06812"
    INDEX 01 00:40:32
  TRACK 33 AUDIO
    TITLE "0:"
    INDEX 01 00:44:54
  TRACK 34 AUDIO
    TITLE "12:cjc034_06813"
    INDEX 01 00:46:13
  TRACK 35 AUDIO
    TITLE "0:"
    INDEX 01 00:47:21
  TRACK 36 AUDIO
    TITLE "13:cjc034_06814"
    INDEX 01 00:47:58
  TRACK 37 AUDIO
    TITLE "0:"
    INDEX 01 00:49:06
  TRACK 38 AUDIO
    TITLE "14:cjc034_06815"
    INDEX 01 00:49:33
  TRACK 39 AUDIO
    TITLE "0:"
    INDEX 01 00:50:44
  TRACK 40 AUDIO
    TITLE "15:cjc034_06816"
    INDEX 01 00:51:05
  TRACK 41 AUDIO
    TITLE "0:"
    INDEX 01 00:57:21
  TRACK 42 AUDIO
    TITLE "12:cjc034_06817"
    INDEX 01 00:58:62
  TRACK 43 AUDIO
    TITLE "0:"
    INDEX 01 01:00:04
  TRACK 44 AUDIO
    TITLE "13:cjc034_06818"
    INDEX 01 01:00:64
  TRACK 45 AUDIO
    TITLE "0:"
    INDEX 01 01:01:72
  TRACK 46 AUDIO
    TITLE "14:cjc034_06819"
    INDEX 01 01:02:38
  TRACK 47 AUDIO
    TITLE "0:"
    INDEX 01 01:03:55
  TRACK 48 AUDIO
    TITLE "15:cjc034_06820"
    INDEX 01 01:04:39
  TRACK 49 AUDIO
    TITLE "0:"
    INDEX 01 01:08:42
  TRACK 50 AUDIO
    TITLE "12:cjc034_06821"
    INDEX 01 01:10:16
  TRACK 51 AUDIO
    TITLE "0:"
    INDEX 01 01:11:15
  TRACK 52 AUDIO
    TITLE "13:cjc034_06822"
    INDEX 01 01:11:51
  TRACK 53 AUDIO
    TITLE "0:"
    INDEX 01 01:12:48
  TRACK 54 AUDIO
    TITLE "14:cjc034_06823"
    INDEX 01 01:13:24
  TRACK 55 AUDIO
    TITLE "0:"
    INDEX 01 01:14:21
  TRACK 56 AUDIO
    TITLE "15:cjc034_06824"
    INDEX 01 01:14:61
  TRACK 57 AUDIO
    TITLE "0:"
    INDEX 01 01:18:33
  TRACK 58 AUDIO
    TITLE "12:cjc034_06825"
    INDEX 01 01:19:66
  TRACK 59 AUDIO
    TITLE "0:"
    INDEX 01 01:21:12
  TRACK 60 AUDIO
    TITLE "13:cjc034_06826"
    INDEX 01 01:21:51
  TRACK 61 AUDIO
    TITLE "0:"
    INDEX 01 01:23:54
  TRACK 62 AUDIO
    TITLE "14:cjc034_06827"
    INDEX 01 01:24:14
  TRACK 63 AUDIO
    TITLE "0:"
    INDEX 01 01:25:33
  TRACK 64 AUDIO
    TITLE "15:cjc034_06828"
    INDEX 01 01:25:74
  TRACK 65 AUDIO
    TITLE "0:"
    INDEX 01 01:29:72
  TRACK 66 AUDIO
    TITLE "16:cjc034_06829"
    INDEX 01 01:31:30
  TRACK 67 AUDIO
    TITLE "0:"
    INDEX 01 01:37:19
  TRACK 68 AUDIO
    TITLE "12:cjc034_06830"
    INDEX 01 01:38:20
  TRACK 69 AUDIO
    TITLE "0:"
    INDEX 01 01:39:37
  TRACK 70 AUDIO
    TITLE "13:cjc034_06831"
    INDEX 01 01:39:72
  TRACK 71 AUDIO
    TITLE "0:"
    INDEX 01 01:41:09
  TRACK 72 AUDIO
    TITLE "14:cjc034_06832"
    INDEX 01 01:41:42
  TRACK 73 AUDIO
    TITLE "0:"
    INDEX 01 01:42:61
  TRACK 74 AUDIO
    TITLE "15:cjc034_06833"
    INDEX 01 01:43:21
  TRACK 75 AUDIO
    TITLE "0:"
    INDEX 01 01:47:40
